{
	"asset":{
		"generator":"Khronos glTF Blender I/O v3.5.30",
		"version":"2.0"
	},
	"scene":0,
	"scenes":[
		{
			"name":"Scene",
			"nodes":[
				7
			]
		}
	],
	"nodes":[
		{
			"mesh":0,
			"name":"Boole",
			"translation":[
				66.64900207519531,
				19.96399688720703,
				-0.09600000828504562
			]
		},
		{
			"mesh":1,
			"name":"Cap 1.001",
			"translation":[
				-86.70800018310547,
				-2.6769981384277344,
				0
			]
		},
		{
			"mesh":2,
			"name":"Cap 2.001",
			"translation":[
				-86.70800018310547,
				-2.6769981384277344,
				0
			]
		},
		{
			"children":[
				1,
				2
			],
			"mesh":3,
			"name":"Extrude",
			"rotation":[
				0,
				0,
				0.7071068286895752,
				0.7071068286895752
			],
			"translation":[
				-33.32500457763672,
				-9.981999397277832,
				-50.41899871826172
			]
		},
		{
			"mesh":4,
			"name":"Cap 1",
			"translation":[
				-86.70799255371094,
				-2.677001953125,
				3.814697265625e-06
			]
		},
		{
			"mesh":5,
			"name":"Cap 2",
			"translation":[
				-86.70799255371094,
				-2.677001953125,
				3.814697265625e-06
			]
		},
		{
			"children":[
				4,
				5
			],
			"mesh":6,
			"name":"Extrude.1",
			"rotation":[
				0.7071068286895752,
				0.7071068286895752,
				0,
				0
			],
			"translation":[
				-33.32500457763672,
				-9.981999397277832,
				50.514007568359375
			]
		},
		{
			"children":[
				0,
				3,
				6
			],
			"name":"Null",
			"rotation":[
				0,
				0,
				0.965885579586029,
				0.2589693069458008
			],
			"scale":[
				-0.020001962780952454,
				-0.020001962780952454,
				-0.020001962780952454
			]
		}
	],
	"materials":[
		{
			"name":"Material_6.001",
			"pbrMetallicRoughness":{
				"baseColorFactor":[
					1,
					0.3869999945163727,
					0.20000000298023224,
					1
				],
				"metallicFactor":0.10000000149011612,
				"roughnessFactor":0.800000011920929
			}
		},
		{
			"name":"Material_4.001",
			"pbrMetallicRoughness":{
				"baseColorFactor":[
					0,
					0,
					0,
					1
				],
				"metallicFactor":0,
				"roughnessFactor":0.5
			}
		},
		{
			"name":"Material_5.001",
			"pbrMetallicRoughness":{
				"baseColorFactor":[
					0,
					0,
					0,
					1
				],
				"metallicFactor":0,
				"roughnessFactor":0.5
			}
		},
		{
			"name":"Material_3.001",
			"pbrMetallicRoughness":{
				"baseColorFactor":[
					0,
					0,
					0,
					1
				],
				"metallicFactor":0,
				"roughnessFactor":0.5
			}
		},
		{
			"name":"Material_1.001",
			"pbrMetallicRoughness":{
				"baseColorFactor":[
					0,
					0,
					0,
					1
				],
				"metallicFactor":0,
				"roughnessFactor":0.5
			}
		},
		{
			"name":"Material_2.001",
			"pbrMetallicRoughness":{
				"baseColorFactor":[
					0,
					0,
					0,
					1
				],
				"metallicFactor":0,
				"roughnessFactor":0.5
			}
		},
		{
			"name":"Material_0.001",
			"pbrMetallicRoughness":{
				"baseColorFactor":[
					0,
					0,
					0,
					1
				],
				"metallicFactor":0,
				"roughnessFactor":0.5
			}
		}
	],
	"meshes":[
		{
			"name":"Mesh_6.001",
			"primitives":[
				{
					"attributes":{
						"POSITION":0,
						"TEXCOORD_0":1,
						"NORMAL":2
					},
					"indices":3,
					"material":0
				}
			]
		},
		{
			"name":"Mesh_4.001",
			"primitives":[
				{
					"attributes":{
						"POSITION":4,
						"TEXCOORD_0":5,
						"NORMAL":6
					},
					"indices":7,
					"material":1
				}
			]
		},
		{
			"name":"Mesh_5.001",
			"primitives":[
				{
					"attributes":{
						"POSITION":8,
						"TEXCOORD_0":9,
						"NORMAL":10
					},
					"indices":11,
					"material":2
				}
			]
		},
		{
			"name":"Mesh_3.001",
			"primitives":[
				{
					"attributes":{
						"POSITION":12,
						"TEXCOORD_0":13,
						"NORMAL":14
					},
					"indices":15,
					"material":3
				}
			]
		},
		{
			"name":"Mesh_1.001",
			"primitives":[
				{
					"attributes":{
						"POSITION":16,
						"TEXCOORD_0":17,
						"NORMAL":18
					},
					"indices":7,
					"material":4
				}
			]
		},
		{
			"name":"Mesh_2.001",
			"primitives":[
				{
					"attributes":{
						"POSITION":19,
						"TEXCOORD_0":20,
						"NORMAL":21
					},
					"indices":11,
					"material":5
				}
			]
		},
		{
			"name":"Mesh_0.001",
			"primitives":[
				{
					"attributes":{
						"POSITION":22,
						"TEXCOORD_0":23,
						"NORMAL":24
					},
					"indices":15,
					"material":6
				}
			]
		}
	],
	"accessors":[
		{
			"bufferView":0,
			"componentType":5126,
			"count":765,
			"max":[
				150,
				150,
				50
			],
			"min":[
				-150,
				-150,
				-50
			],
			"type":"VEC3"
		},
		{
			"bufferView":1,
			"componentType":5126,
			"count":765,
			"type":"VEC2"
		},
		{
			"bufferView":2,
			"componentType":5126,
			"count":765,
			"type":"VEC3"
		},
		{
			"bufferView":3,
			"componentType":5123,
			"count":2157,
			"type":"SCALAR"
		},
		{
			"bufferView":4,
			"componentType":5126,
			"count":260,
			"max":[
				235.875,
				17,
				0
			],
			"min":[
				0,
				2.125,
				0
			],
			"type":"VEC3"
		},
		{
			"bufferView":5,
			"componentType":5126,
			"count":260,
			"type":"VEC2"
		},
		{
			"bufferView":6,
			"componentType":5126,
			"count":260,
			"type":"VEC3"
		},
		{
			"bufferView":7,
			"componentType":5123,
			"count":744,
			"type":"SCALAR"
		},
		{
			"bufferView":8,
			"componentType":5126,
			"count":260,
			"max":[
				235.875,
				17,
				20
			],
			"min":[
				0,
				2.125,
				20
			],
			"type":"VEC3"
		},
		{
			"bufferView":9,
			"componentType":5126,
			"count":260,
			"type":"VEC2"
		},
		{
			"bufferView":10,
			"componentType":5126,
			"count":260,
			"type":"VEC3"
		},
		{
			"bufferView":11,
			"componentType":5123,
			"count":744,
			"type":"SCALAR"
		},
		{
			"bufferView":12,
			"componentType":5126,
			"count":1188,
			"max":[
				149.16734313964844,
				14.322547912597656,
				20
			],
			"min":[
				-86.70765686035156,
				-0.5524516105651855,
				0
			],
			"type":"VEC3"
		},
		{
			"bufferView":13,
			"componentType":5126,
			"count":1188,
			"type":"VEC2"
		},
		{
			"bufferView":14,
			"componentType":5126,
			"count":1188,
			"type":"VEC3"
		},
		{
			"bufferView":15,
			"componentType":5123,
			"count":1560,
			"type":"SCALAR"
		},
		{
			"bufferView":16,
			"componentType":5126,
			"count":260,
			"max":[
				235.875,
				17,
				0
			],
			"min":[
				0,
				2.125,
				0
			],
			"type":"VEC3"
		},
		{
			"bufferView":17,
			"componentType":5126,
			"count":260,
			"type":"VEC2"
		},
		{
			"bufferView":18,
			"componentType":5126,
			"count":260,
			"type":"VEC3"
		},
		{
			"bufferView":19,
			"componentType":5126,
			"count":260,
			"max":[
				235.875,
				17,
				20
			],
			"min":[
				0,
				2.125,
				20
			],
			"type":"VEC3"
		},
		{
			"bufferView":20,
			"componentType":5126,
			"count":260,
			"type":"VEC2"
		},
		{
			"bufferView":21,
			"componentType":5126,
			"count":260,
			"type":"VEC3"
		},
		{
			"bufferView":22,
			"componentType":5126,
			"count":1188,
			"max":[
				149.16734313964844,
				14.322547912597656,
				20
			],
			"min":[
				-86.70765686035156,
				-0.5524516105651855,
				0
			],
			"type":"VEC3"
		},
		{
			"bufferView":23,
			"componentType":5126,
			"count":1188,
			"type":"VEC2"
		},
		{
			"bufferView":24,
			"componentType":5126,
			"count":1188,
			"type":"VEC3"
		}
	],
	"bufferViews":[
		{
			"buffer":0,
			"byteLength":9180,
			"byteOffset":0,
			"target":34962
		},
		{
			"buffer":0,
			"byteLength":6120,
			"byteOffset":9180,
			"target":34962
		},
		{
			"buffer":0,
			"byteLength":9180,
			"byteOffset":15300,
			"target":34962
		},
		{
			"buffer":0,
			"byteLength":4314,
			"byteOffset":24480,
			"target":34963
		},
		{
			"buffer":0,
			"byteLength":3120,
			"byteOffset":28796,
			"target":34962
		},
		{
			"buffer":0,
			"byteLength":2080,
			"byteOffset":31916,
			"target":34962
		},
		{
			"buffer":0,
			"byteLength":3120,
			"byteOffset":33996,
			"target":34962
		},
		{
			"buffer":0,
			"byteLength":1488,
			"byteOffset":37116,
			"target":34963
		},
		{
			"buffer":0,
			"byteLength":3120,
			"byteOffset":38604,
			"target":34962
		},
		{
			"buffer":0,
			"byteLength":2080,
			"byteOffset":41724,
			"target":34962
		},
		{
			"buffer":0,
			"byteLength":3120,
			"byteOffset":43804,
			"target":34962
		},
		{
			"buffer":0,
			"byteLength":1488,
			"byteOffset":46924,
			"target":34963
		},
		{
			"buffer":0,
			"byteLength":14256,
			"byteOffset":48412,
			"target":34962
		},
		{
			"buffer":0,
			"byteLength":9504,
			"byteOffset":62668,
			"target":34962
		},
		{
			"buffer":0,
			"byteLength":14256,
			"byteOffset":72172,
			"target":34962
		},
		{
			"buffer":0,
			"byteLength":3120,
			"byteOffset":86428,
			"target":34963
		},
		{
			"buffer":0,
			"byteLength":3120,
			"byteOffset":89548,
			"target":34962
		},
		{
			"buffer":0,
			"byteLength":2080,
			"byteOffset":92668,
			"target":34962
		},
		{
			"buffer":0,
			"byteLength":3120,
			"byteOffset":94748,
			"target":34962
		},
		{
			"buffer":0,
			"byteLength":3120,
			"byteOffset":97868,
			"target":34962
		},
		{
			"buffer":0,
			"byteLength":2080,
			"byteOffset":100988,
			"target":34962
		},
		{
			"buffer":0,
			"byteLength":3120,
			"byteOffset":103068,
			"target":34962
		},
		{
			"buffer":0,
			"byteLength":14256,
			"byteOffset":106188,
			"target":34962
		},
		{
			"buffer":0,
			"byteLength":9504,
			"byteOffset":120444,
			"target":34962
		},
		{
			"buffer":0,
			"byteLength":14256,
			"byteOffset":129948,
			"target":34962
		}
	],
	"buffers":[
		{
			"byteLength":144204,
			"uri":"data:application/octet-stream;base64,"
		}
	]
}
